<mxfile host="app.diagrams.net" modified="2023-03-22T07:25:52.697Z" agent="5.0 (Windows NT 10.0; Win64; x64) AppleWebKit/537.36 (KHTML, like Gecko) Chrome/111.0.0.0 Safari/537.36" etag="WDbS-Fl727ihGePa-X0G" version="21.0.6" type="github">
  <diagram name="第 1 页" id="Gnprb3pwzhZOcsWXGHnt">
    <mxGraphModel dx="1434" dy="764" grid="1" gridSize="10" guides="1" tooltips="1" connect="1" arrows="1" fold="1" page="1" pageScale="1" pageWidth="827" pageHeight="1169" math="0" shadow="0">
      <root>
        <mxCell id="0" />
        <mxCell id="1" parent="0" />
        <mxCell id="YJZ58jIE2s2qjGyKAjE7-8" style="edgeStyle=orthogonalEdgeStyle;rounded=0;orthogonalLoop=1;jettySize=auto;html=1;entryX=0.5;entryY=0;entryDx=0;entryDy=0;" edge="1" parent="1" source="YJZ58jIE2s2qjGyKAjE7-1" target="YJZ58jIE2s2qjGyKAjE7-2">
          <mxGeometry relative="1" as="geometry" />
        </mxCell>
        <mxCell id="YJZ58jIE2s2qjGyKAjE7-9" value="2、表上告" style="edgeLabel;html=1;align=center;verticalAlign=middle;resizable=0;points=[];" vertex="1" connectable="0" parent="YJZ58jIE2s2qjGyKAjE7-8">
          <mxGeometry x="-0.1692" relative="1" as="geometry">
            <mxPoint as="offset" />
          </mxGeometry>
        </mxCell>
        <mxCell id="YJZ58jIE2s2qjGyKAjE7-1" value="" style="shape=image;verticalLabelPosition=bottom;verticalAlign=top;imageAspect=0;aspect=fixed;image=data:image/png,iVBORw0KGgoAAAANSUhEUgAAAMgAAADICAYAAACtWK6eAAAAAXNSR0IArs4c6QAADORJREFUeF7tnU2MHEcVgF+NEbEDkYMUDkhEAmIpYW0U71QvCRDIGolLIgHhJ+IAEiiJw8/NOXDAyGthDhziGz9JiECCAyJAAIlckPACCSRs1+xG2IstOQQJJA5EIpYhdhCeQi1P2LV3s66a6Xpd0/2NtEpkVb9X9dX75nXP9vYYyfxVFMUHReQm7/3bRWTv6Cdm1isismKM+ZOInCzL8ucxBzP2UgJd2w+TawEURbHHe39URD5Q8xx/aYw5UJbl8ZrjtjpcV/cjS0GKoviS9/5Iyoozxhwsy/KrKXO0JXaX9yM7Qay1PxGRu5SK63Hn3EeUck1lmq7vR1aCWGtvE5HfKlfSe51zTyrnnIp07IdINoLs2rXrqp07d54QkRuUq+e5M2fO7D59+vTLynmzTsd+XNyebASx1j4oIgcaqpqjzrkHGsqdZVr2Iz9B/ioib26oWv7mnLu+odxZprXWsh+5dBBrbV9EXMOVYp1zg4bnkEV69mNtG7I4xbLWfl5Evt5wdXzBOfeNhueQRXr2IzNBiqL4nvf+k01WhzHm+2VZfqrJOeSSm/3ITBBr7TERmW+4QBadc/sankMW6dkPBNmsEBFkRAVBEARBtuhVCIIgCIIgQaezuXyKxTVI0HbpDKKD0EHoIHSQoHcbOsgaJi7SuUjfIA2CIMiGouAUi1MsTrE4xeIUK4gAHYQOskWhcIqFIAiiIcjc3Nz13vubRORG7/3NIrIr8h288VtNIufb9uHTth+njTHPisgpY8zJpaWl6nb9iV8TdxBr7Zuqp48YYz4x8WwIAIGaCHjvf1A9vcY59/dJQk4kSFEU948ezXP1JJPgWAgkIvDS6BFPD40bf2xBrLW/EJE7xk3McRBQJPCEc+7OcfKNJUhRFHd47ytBeEFgKggYY+4sy/KJ2MlGC2KtvU5E/hGbiPEQyIDAG51zL8TMYxxBHhaR+2KSMBYCmRB4xDm3P2YuUYLMzs7O9Hq96tlVvCAwlQSGw+Hu5eXl1dDJRwlSFMU93vtvhwZnHARyI2CMubcsy0dD5xUliLW2kuOe0OCMg0CGBB51zt0bOq9YQaqvDNgdGpxxEMiQwAnn3J7QecUK4kMDMw4CuRJwzgXXffDAarHWWgTJddeZVzABBAlGxcAuEkCQLu46aw4mgCDBqBjYRQII0sVdZ83BBBAkGBUDu0gAQbq466w5mACCBKNiYBcJIEgXd501BxNAkGBUDOwiAQQRqW7JX/XeB9/WnFGhTNvdCsYYMyMi1c9U3KfXVUGO9Xq9g8PhsLoZ7UxGBd+ZqVhrd/Z6vd3D4fCIiGT7bV1dFOSbzrnqi0B5ZULAWlt9IernMpnOJdPomiC3OueeyXEjuj4na+0tIvJ0bhw6I0iv17thaWnpz7ltAPNZIzA3N/e24XD4XE5MOiGIMeazZVmO/UCwnDas7XMZPWDwW7mss/WCeO9/PBgMPpYLcOZxZQL9fv9HxpiPXnlk+hGtF8QYc1tZlk+lR0mGuggURfEe7/2TdcWbJE7rBblw4cIbVlZWXpwEEsfqEti7d++127Zt+6du1s2ztV2QU8656msWeE0ZAWvtyerrMZqedtsF+alz7q6mIZM/noC19nER+XD8kfUe0WpBvPeHB4PBQr3IiKZBoN/vLxhjDmnk2ioHgjS9A+TflACCKBQGHUQBcqIUCJII7PqwCKIAOVEKBEkEFkEUwCqkQBAFyHQQBciJUiBIIrB0EAWwCikQRAEyHUQBcqIUCJIILB1EAaxCCgRRgEwHUYCcKAWCJAJLB1EAq5ACQRQgx3SQoijmY6ZUluViyPjYuCExNcakWl9oXARR2OUYQSI3ZNE5F/QkjkoQ7/0xheXWlsIYsy+0kK211dqC3lwS7kdta788EPdijYj0+/1DxpjQGxsRZMQNQdaUmrqvYIt8x0KQ0V7TQdaKng5CB9lweoIgCLKhKLgGWXeqwDXI/2HQQdY6SMwf6HANwjXIxs4b81FBDl8DHXkNgiBcg2wocToIHYRrkC3e+REEQRAEQa58cshFOhfpm1UJHeTSDnL7lVW6OCLyN+mNP50jdF3VOGPM4cjfpAeF997/OvQpM5FvWEH5xxmEIONQ45jkBBAkOWKRmE+xFKZDiggCCBIBa9yhCDIuueaPQxCFPUAQBciJUiBIIrDrwyKIAuREKRAkEVgEUQCrkAJBFCDTQRQgJ0qBIInA0kEUwCqkQBAFyHQQBciJUiBIIrB0EAWwCikQRAEyHUQBcqIUCJIILB1EAaxCCgRRgEwHUYCcKAWCJAJLB1EAq5ACQRQg00EUICdKgSCJwNJBFMAqpEAQBch0EAXIiVIgSCKwdBAFsAopEEQBMh1EAXKiFAiSCCwdRAGsQgoEUYBMB1GAnCgFgiQCSwdRAKuQAkEUIMd0kFw2RAFLYymmcT947M+oXBAkvTcIso5xyx9enb6aWpgBQRCkhWVd35IQBEHqq6YWRkIQBGlhWde3JARBkPqqqYWREARBWljW9S0JQRCkvmpqYSQEQZAWlnV9S0IQBKmvmloYCUHyE2RhMBgcDqk1fpMeQmmyMZGCHDLGLEyWcfKj236rCYJMXiO1RUAQOkhtxdTGQAiCIG2s69rWhCAIUlsxtTEQgiBIG+u6tjV572OuCblIr438qwSK3JAFY8xUfZ95an51x6eD0EHqrqlWxUMQBGlVQde9GARBkLprqlXxEARBWlXQdS8GQaZYkKIo5usuCOJtJFCW5WIIl36/z6dYIaAmGRPzKdYkeTi2fgIIUj/TDRERRAFyohQIkgjs+rAIogA5UQoESQQWQRTAKqRAEAXIdBAFyIlSIEgisHQQBbAKKRBEATIdRAFyohQIkggsHUQBrEIKBFGATAdRgJwoBYIkAksHUQCrkAJBFCCn6iDVbSnee/52RESMMYdDbx+J2XIEiaE15tjEghwbc1qtOswYsw9BLm6pidnZTL5AJ/hPPGPWNuogCHKxgyDIqHgQZAQCQdbeThBkHYuYd1k6SAyt6R2LIAiyoXrpIHSQzd7SOMXiFGtDXdBB6CB0kC3OABEEQRAEQYIuEjnF4hSLU6yt3iyCNBoN4lOsGFrTO5ZTLE6xNj3FGg6Ht6/75akf/X/13+p1ebe9/N9fbfzl/74+dxXzlTib5WjEsl6vt8hv0jff9C03pM0dpJFK7FhS7sVS2PBU92IpTL3zKRBEoQQQRAFyohQIkgjs+rAIogA5UQoESQQWQRTAKqRAEAXIdBAFyIlSIEgisHQQBbAKKRBEATIdRAFyohQIkggsHUQBrEIKBFGATAdRgJwoBYIkAksHUQCrkAJBFCDTQRQgJ0qBIInA0kEUwCqkQBAFyHQQBciJUiBIIrB0EAWwCikQRAEyHUQBcqIUCJIILB1EAaxCCgRRgEwHUYCcKAWCJAJLB1EAq5ACQRQg00EUICdKgSCJwNJBFMAqpEAQBch0EAXIiVIgSCKwl4X9rnPuMzqpyFInAWvtd0Tk03XGHCeWcy74gYnBA6uJZPLYn6XBYPDOccBwTLME+v3+H4wxc83OQqTVgojIv6+55pprFxcX/9s0aPKHE5ifn3/N2bNnXxSR14UflWZk2wWR4XC4d3l5+dk0+IiagsDs7OzNvV5vJUXs2JitF0REHnHO7Y8Fw/jmCFhrHxaR+5qbwVrmLghSrfYB59zRHIAzh60JWGsPiMiDuXDqiiBy7ty5q1ZXV/+TC3jmsZHAzMzMa3fs2PFyTmw6I4iIDJxzNif4zOVSAtZaJyL9nLh0SZCK+0si8n7n3DM5bULX52KtvUVEfiUiV+fGomuCvML/y865I7ltRhfnY609KCJfyXXtXRWk2o8XROSU9/6UiPwxl48Vcy2UuuZVfewuIu8wxtwoItXPdXXFThGny4Kk4EnMlhFAkJZtKMuplwCC1MuTaC0jgCAt21CWUy8BBKmXJ9FaRgBBWrahLKdeAghSL0+itYwAgrRsQ1lOvQQQpF6eRGsZAQRp2YaynHoJIEi9PInWMgIpBXleRN7SMl4sp1sE/uKce2vokmOfapLFY1tCF8c4CGxCIOqxUVGC9Pv9/caYh8AOgWkl4L2/fzAYVH8fH/SKFcQaY8qgyAyCQIYEvPfFYDCo/sox6BUlSBWxKIrfee/fFRSdQRDIiIAx5vdlWb47ZkrRglhrPy4iP4xJwlgIZELgbufcYzFziRakCm6trQSpROEFgWkh8Jhz7u7YyY4lyEgSH5uM8RBoikDM7z7Wz3FsQaoguTzOvino5M2fgPf+8GAwWBh3phMJUiWdnZ19X6/X+5qI3DruJDgOAgkIPD0cDr+4vLz8m0liTyxIlXxmZub127dv/5AxZo8xZrf3fo+IBP+2cpIFcCwERgSeN8Yc996f8N4fP3/+/M9WV1f/NSmd/wEW2UpfwQpxhAAAAABJRU5ErkJggg==" vertex="1" parent="1">
          <mxGeometry x="380" y="20" width="80" height="80" as="geometry" />
        </mxCell>
        <mxCell id="YJZ58jIE2s2qjGyKAjE7-2" value="&lt;span style=&quot;white-space: pre;&quot;&gt;	&lt;/span&gt;EMBC" style="rounded=1;whiteSpace=wrap;html=1;align=left;horizontal=1;verticalAlign=top;" vertex="1" parent="1">
          <mxGeometry x="200" y="230" width="440" height="260" as="geometry" />
        </mxCell>
        <mxCell id="YJZ58jIE2s2qjGyKAjE7-4" value="1、生成命令记录，待表上告后下发" style="rounded=0;whiteSpace=wrap;html=1;" vertex="1" parent="1">
          <mxGeometry x="250" y="300" width="110" height="50" as="geometry" />
        </mxCell>
      </root>
    </mxGraphModel>
  </diagram>
</mxfile>
